<?xml version="1.0" standalone="no"?>
<!DOCTYPE svg PUBLIC "-//W3C//DTD SVG 20010904//EN"
 "http://www.w3.org/TR/2001/REC-SVG-20010904/DTD/svg10.dtd">
<svg version="1.0" xmlns="http://www.w3.org/2000/svg"
 width="46.000000pt" height="46.000000pt" viewBox="0 0 46.000000 46.000000"
 preserveAspectRatio="xMidYMid meet">
<metadata>
Created by potrace 1.10, written by Peter Selinger 2001-2011
</metadata>
<g transform="translate(0.000000,46.000000) scale(0.100000,-0.100000)"
fill="#000000" stroke="none">
<path d="M150 345 c0 -16 6 -25 15 -25 9 0 15 9 15 25 0 16 -6 25 -15 25 -9 0
-15 -9 -15 -25z"/>
<path d="M200 345 c0 -16 6 -25 15 -25 9 0 15 9 15 25 0 16 -6 25 -15 25 -9 0
-15 -9 -15 -25z"/>
<path d="M250 345 c0 -16 6 -25 15 -25 9 0 15 9 15 25 0 16 -6 25 -15 25 -9 0
-15 -9 -15 -25z"/>
<path d="M114 264 c-10 -39 1 -124 19 -141 20 -20 103 -28 140 -14 15 6 32 22
37 36 5 14 14 25 20 25 17 0 50 39 50 60 0 11 -9 29 -20 40 -18 18 -33 20
-130 20 -109 0 -110 0 -116 -26z m176 -52 c0 -32 -5 -63 -12 -70 -16 -16 -110
-16 -126 0 -7 7 -12 38 -12 70 l0 58 75 0 75 0 0 -58z m54 35 c8 -12 8 -22 0
-34 -21 -33 -34 -26 -34 17 0 43 13 50 34 17z"/>
</g>
</svg>
